<?xml version="1.0" encoding="utf-8"?>
<!-- Generator: Adobe Illustrator 26.3.1, SVG Export Plug-In . SVG Version: 6.00 Build 0)  -->
<svg version="1.1" id="Layer_1" xmlns="http://www.w3.org/2000/svg" xmlns:xlink="http://www.w3.org/1999/xlink" x="0px" y="0px"
	 viewBox="0 0 54 45" style="enable-background:new 0 0 54 45;" xml:space="preserve">
<g>
	<path d="M34.4,16.3c-1,0.4-2,0.8-3,1.2c-0.4,0.2-0.9,0.5-1.3,0.4c-0.3-0.1-0.5-0.7-0.7-1.1c-3.9-7-13.4-8.2-18.9-2.4
		c-2.9,3.2-3.8,6.9-2.7,11.2c1.3,5.1,6.6,8.9,11.7,8.5c0.5,0,1.1-0.2,1.6-0.2c0.3,0,0.7,0,0.9,0.2c1.2,1.1,2.4,2.2,3.6,3.3
		c-3.6,1.9-10.5,2.4-16.1-1.7c-6-4.3-8.4-11.9-5.9-19c2.2-6.1,8.2-11,15.9-10.8C27,6.2,32.4,11.1,34.4,16.3z"/>
	<path d="M46.9,26.5c1.3,0.5,2.7,1,4.3,1.6c-0.6,1.1-1.1,2.2-1.7,3.2c-3.9,5.8-9.4,8.4-16.4,7.4c-5.9-0.9-10.1-4.2-12.6-9.6
		c-1.3-2.7-1.7-5.6-1.3-8.5c0.3-2.7,1.3-5.3,2.9-7.5c0.2-0.3,0.5-0.3,0.8-0.2c1.2,0.5,2.3,1.1,3.3,2c0.3,0.2,0.2,0.4,0.1,0.7
		c-1.2,1.7-2,3.5-2.3,5.6c-0.3,2.4,0.2,4.7,1.3,6.8c3.9,7.3,13.8,8.5,19.3,2.2C45.4,29.1,46.1,27.8,46.9,26.5z"/>
	<path d="M46.7,18.1c-0.7-1-1.2-2.1-2-3c-2.9-3.4-6.5-4.7-10.9-4.1c-0.6,0.1-1-0.1-1.4-0.5c-1-0.9-2-1.8-3.1-2.7
		c-0.1-0.1-0.2-0.2-0.4-0.3c0.8-0.3,1.5-0.5,2.2-0.7c6.5-1.9,13.4,0.4,17.5,5.7c0.8,1.1,1.4,2.3,2.1,3.5c0.1,0.2,0.2,0.4-0.2,0.6
		C49.3,17,48,17.5,46.7,18.1z"/>
	<path d="M34.7,28.2c-0.2,0.3-0.3,0.6-0.4,0.9c-0.5,0.9-1,1.8-1.5,2.7c-0.2,0.4-0.5,0.4-0.9,0.3c-1.1-0.5-2.2-1.1-3.1-1.9
		c-0.2-0.2-0.3-0.4-0.1-0.7c0.5-0.9,1-1.8,1.5-2.7c0.1-0.3,0.3-0.3,0.6-0.2c1.2,0.4,2.4,0.9,3.6,1.3C34.4,28,34.6,28.1,34.7,28.2z"
		/>
</g>
</svg>
